name pl08_filtered_grf.mot
datacolumns 37
datarows 7
range 1.613500 1.616500
endheader
time	1_ground_force_vx	1_ground_force_vy	1_ground_force_vz	1_ground_force_px	1_ground_force_py	1_ground_force_pz	1_ground_torque_x	1_ground_torque_y	1_ground_torque_z	2_ground_force_vx	2_ground_force_vy	2_ground_force_vz	2_ground_force_px	2_ground_force_py	2_ground_force_pz	2_ground_torque_x	2_ground_torque_y	2_ground_torque_z	3_ground_force_vx	3_ground_force_vy	3_ground_force_vz	3_ground_force_px	3_ground_force_py	3_ground_force_pz	3_ground_torque_x	3_ground_torque_y	3_ground_torque_z	4_ground_force_vx	4_ground_force_vy	4_ground_force_vz	4_ground_force_px	4_ground_force_py	4_ground_force_pz	4_ground_torque_x	4_ground_torque_y	4_ground_torque_z
            1.613500	          -12.332421	          336.895114	            4.711603	            0.130309	            0.000000	            0.182975	           -0.274822	            7.507555	            0.104996	           18.703397	          327.485715	           -3.220782	           -0.133009	            0.000000	            0.209670	            0.007277	            0.127419	           -0.001253	           21.555220	            1.916584	            0.917762	            0.375453	            1.311097	            1.913702	           -0.091572	           -0.008142	           -0.003899	          -18.630570	           -0.287121	            1.411715	           -0.265360	            1.310020	            1.924660	            0.009452	            0.000146	           -0.000716
            1.614000	          -12.289879	          336.173227	            4.817510	            0.130252	            0.000000	            0.182874	           -0.274375	            7.505165	            0.107552	           18.713004	          326.890559	           -3.178027	           -0.132989	            0.000000	            0.209616	            0.007389	            0.129075	           -0.001255	           21.552539	            1.908232	            0.923388	            0.375451	            1.311096	            1.913702	           -0.091790	           -0.008127	           -0.003933	          -18.641485	           -0.286960	            1.403766	           -0.265365	            1.310020	            1.924661	            0.009368	            0.000144	           -0.000705
            1.614500	          -12.246343	          335.452251	            4.921269	            0.130195	            0.000000	            0.182772	           -0.273911	            7.502990	            0.110073	           18.721597	          326.295710	           -3.139508	           -0.132968	            0.000000	            0.209563	            0.007485	            0.130459	           -0.001255	           21.551528	            1.900024	            0.927063	            0.375448	            1.311095	            1.913701	           -0.092010	           -0.008112	           -0.003958	          -18.653579	           -0.286618	            1.396605	           -0.265370	            1.310020	            1.924662	            0.009275	            0.000143	           -0.000694
            1.615000	          -12.201896	          334.732840	            5.022975	            0.130137	            0.000000	            0.182670	           -0.273432	            7.501030	            0.112560	           18.729151	          325.701248	           -3.105167	           -0.132947	            0.000000	            0.209510	            0.007565	            0.131564	           -0.001254	           21.552081	            1.892038	            0.928779	            0.375446	            1.311094	            1.913700	           -0.092231	           -0.008097	           -0.003975	          -18.666900	           -0.286113	            1.390295	           -0.265375	            1.310020	            1.924663	            0.009176	            0.000141	           -0.000683
            1.615500	          -12.156621	          334.015653	            5.122732	            0.130078	            0.000000	            0.182568	           -0.272939	            7.499283	            0.115015	           18.735648	          325.107278	           -3.074913	           -0.132926	            0.000000	            0.209457	            0.007629	            0.132384	           -0.001252	           21.554083	            1.884332	            0.928558	            0.375445	            1.311093	            1.913698	           -0.092451	           -0.008082	           -0.003983	          -18.681501	           -0.285467	            1.384732	           -0.265380	            1.310020	            1.924665	            0.009072	            0.000139	           -0.000672
            1.616000	          -12.110602	          333.301355	            5.220649	            0.130020	            0.000000	            0.182466	           -0.272433	            7.497748	            0.117441	           18.741070	          324.513940	           -3.048624	           -0.132904	            0.000000	            0.209404	            0.007676	            0.132917	           -0.001249	           21.557409	            1.876979	            0.926405	            0.375443	            1.311092	            1.913697	           -0.092669	           -0.008069	           -0.003982	          -18.697396	           -0.284689	            1.380131	           -0.265385	            1.310021	            1.924667	            0.008965	            0.000137	           -0.000662
            1.616500	          -12.063919	          332.590604	            5.316841	            0.129961	            0.000000	            0.182365	           -0.271915	            7.496423	            0.119839	           18.745406	          323.921397	           -3.026145	           -0.132883	            0.000000	            0.209352	            0.007706	            0.133164	           -0.001244	           21.561929	            1.870031	            0.922357	            0.375442	            1.311090	            1.913695	           -0.092883	           -0.008056	           -0.003973	          -18.714599	           -0.283788	            1.376541	           -0.265389	            1.310021	            1.924668	            0.008856	            0.000134	           -0.000651
